<svg id="레이어_1" data-name="레이어 1" xmlns="http://www.w3.org/2000/svg" viewBox="0 0 180.93 32.531"><defs><style>.cls-1{fill:none;stroke:#fff;stroke-miterlimit:10;stroke-width:1.5px;}.cls-2{font-size:20px;fill:#fff;font-family:MangoDdobak-B, Mango Ddobak;}.cls-3{letter-spacing:-0.02em;}.cls-4{letter-spacing:-0.005em;}</style></defs><path class="cls-1" d="M40.968,16.172" transform="translate(-25.177 -9.25)"/><path class="cls-1" d="M26,22.5H59.5c0,10.234-6.662,18.531-16.9,18.531S25.927,32.734,25.927,22.5Z" transform="translate(-25.177 -9.25)"/><path class="cls-1" d="M59.281,26.206c4.211.025,7.9-.726,7.219,3.294-.717,4.231-15,7.056-10.925,5.971" transform="translate(-25.177 -9.25)"/><path class="cls-1" d="M46.375,10.655a2.757,2.757,0,0,0-3.778.205l-.127.128a.025.025,0,0,1-.036,0l-.127-.128a2.757,2.757,0,0,0-3.778-.205,2.656,2.656,0,0,0-.087,3.834l.267.267h0l3.725,3.732a.025.025,0,0,0,.036,0l3.724-3.732h0l.268-.267A2.657,2.657,0,0,0,46.375,10.655Z" transform="translate(-25.177 -9.25)"/><text class="cls-2" transform="translate(53.233 21.361)">Boon<tspan class="cls-3" x="47.339" y="0">k</tspan><tspan x="57.6" y="0">ag</tspan><tspan class="cls-4" x="82.04" y="0">r</tspan><tspan x="90.178" y="0">am</tspan></text></svg>