<svg id="레이어_1" data-name="레이어 1" xmlns="http://www.w3.org/2000/svg" xmlns:xlink="http://www.w3.org/1999/xlink" viewBox="0 0 511.999 512"><defs><style>.cls-1{fill:none;}.cls-2{clip-path:url(#clip-path);}</style><clipPath id="clip-path" transform="translate(0 0)"><path class="cls-1" d="M228.927,502c-44.606,0-54.135-.325-77.531-1.356-23.583-1.034-41.773-4.46-58.984-11.114A115.983,115.983,0,0,1,50.46,462.335a115.751,115.751,0,0,1-27.354-41.842c-6.719-17.156-10.216-35.329-11.345-58.933-1.289-27.032-1.6-36.04-1.73-105.09-.132-69.005.142-78.018,1.325-105.075,1.043-23.621,4.471-41.817,11.115-59a115.831,115.831,0,0,1,27.2-41.943A115.588,115.588,0,0,1,91.508,23.109c17.19-6.736,35.363-10.234,58.941-11.347,27.386-1.315,35.6-1.6,105.076-1.731,10.453-.02,19.526-.031,27.5-.031,44.674,0,54.2.328,77.586,1.365,23.568,1.019,41.756,4.447,58.985,11.114a115.656,115.656,0,0,1,41.957,27.188A116.034,116.034,0,0,1,488.9,91.51c6.726,17.206,10.224,35.387,11.342,58.952,1.29,27.174,1.6,36.21,1.731,105.067.134,68.817-.143,77.866-1.334,105.1-1.027,23.579-4.453,41.762-11.113,58.96A120.789,120.789,0,0,1,420.488,488.9c-17.2,6.718-35.379,10.217-58.933,11.344-27.063,1.282-36.078,1.59-105.1,1.722C245.992,501.988,236.906,502,228.927,502ZM283.9,36.125c-8.135,0-17.476.011-28.335.032-68.593.134-76.73.41-103.876,1.7-26.407,1.254-40.954,5.776-50.677,9.575A89.825,89.825,0,0,0,68.168,68.885a89.937,89.937,0,0,0-21.336,32.931c-3.777,9.828-8.248,24.455-9.373,50.713-1.189,27.263-1.436,35.422-1.3,103.889.123,68.206.4,76.4,1.694,103.883,1.231,26.249,5.759,40.871,9.567,50.678a90.089,90.089,0,0,0,21.458,32.853,90.256,90.256,0,0,0,32.937,21.342c9.785,3.765,24.376,8.227,50.716,9.373,23.42,1.015,32.892,1.336,76.154,1.336,7.992,0,17.142-.012,27.731-.032,68.181-.124,76.382-.4,103.9-1.695,26.383-1.255,40.932-5.776,50.661-9.574a94.792,94.792,0,0,0,54.194-54.376c3.764-9.768,8.225-24.347,9.374-50.736,1.2-27.225,1.444-35.376,1.312-103.9-.124-68.241-.405-76.431-1.711-103.887-1.249-26.439-5.771-40.965-9.57-50.666a89.776,89.776,0,0,0-21.46-32.847,89.729,89.729,0,0,0-32.932-21.34c-9.7-3.757-24.239-8.22-50.7-9.373C336.364,36.445,327,36.125,283.9,36.125ZM255.981,377.434c-66.825,0-121.3-54.373-121.426-121.205a121.451,121.451,0,0,1,121.2-121.68H256c66.839,0,121.322,54.377,121.453,121.215A121.451,121.451,0,0,1,256.226,377.434Zm-.17-216.759a95.326,95.326,0,0,0,.176,190.651h.186A95.326,95.326,0,0,0,256,160.675Zm136.56-20.869a20.7,20.7,0,1,1,.039,0Z"/></clipPath></defs><g class="cls-2"><path d="M170.663,256.157a85.333,85.333,0,1,1,85.49,85.169A85.333,85.333,0,0,1,170.663,256.157Zm-46.108.092a131.45,131.45,0,1,0,131.184-131.7,131.434,131.434,0,0,0-131.184,131.7Zm237.1-137.092a30.718,30.718,0,1,0,30.656-30.772A30.719,30.719,0,0,0,361.659,119.157Zm-208.7,345.4c-24.958-1.086-38.511-5.234-47.543-8.709a79.779,79.779,0,0,1-29.479-19.093,79.572,79.572,0,0,1-19.2-29.4c-3.508-9.033-7.73-22.569-8.9-47.527C46.57,332.848,46.28,324.753,46.156,256.4c-.133-68.338.116-76.434,1.294-103.441,1.069-24.941,5.242-38.512,8.709-47.536A79.429,79.429,0,0,1,75.253,75.943a79.3,79.3,0,0,1,29.4-19.2c9.025-3.526,22.561-7.715,47.511-8.9,27-1.278,35.085-1.551,103.423-1.684s76.448.108,103.456,1.294c24.94,1.086,38.51,5.217,47.527,8.709a79.247,79.247,0,0,1,29.478,19.094,79.269,79.269,0,0,1,19.21,29.413c3.524,9,7.714,22.552,8.892,47.494,1.285,27,1.576,35.094,1.7,103.432.132,68.355-.117,76.451-1.3,103.442-1.087,24.957-5.226,38.52-8.709,47.56a84.794,84.794,0,0,1-48.506,48.672c-9.009,3.517-22.561,7.714-47.494,8.9-27,1.269-35.086,1.56-103.448,1.684-68.338.133-76.424-.124-103.431-1.294ZM149.977,1.773c-27.239,1.286-45.843,5.648-62.1,12.019A125.217,125.217,0,0,0,42.59,43.4a125.438,125.438,0,0,0-29.446,45.4c-6.3,16.3-10.575,34.912-11.778,62.168C.172,178.264-.1,186.973.031,256.489S.47,334.723,1.772,362.037c1.3,27.231,5.649,45.827,12.019,62.092A125.319,125.319,0,0,0,43.4,469.418a125.548,125.548,0,0,0,45.4,29.438c16.282,6.294,34.9,10.583,62.15,11.777,27.305,1.2,36.022,1.468,105.521,1.336,69.532-.133,78.25-.44,105.555-1.734,27.239-1.3,45.826-5.664,62.1-12.019A130.8,130.8,0,0,0,498.848,423.2c6.3-16.282,10.592-34.9,11.777-62.134,1.195-27.323,1.478-36.049,1.344-105.557s-.447-78.225-1.741-105.522c-1.294-27.256-5.657-45.844-12.019-62.118a125.574,125.574,0,0,0-29.6-45.288,125.286,125.286,0,0,0-45.4-29.429c-16.29-6.3-34.9-10.6-62.15-11.778C333.747.164,325.03-.1,255.506.031,186,.164,177.282.462,149.977,1.773Z" transform="translate(0 0)"/><path d="M170.663,256.157a85.333,85.333,0,1,1,85.49,85.169A85.333,85.333,0,0,1,170.663,256.157Zm-46.108.092a131.45,131.45,0,1,0,131.184-131.7,131.434,131.434,0,0,0-131.184,131.7Zm237.1-137.092a30.718,30.718,0,1,0,30.656-30.772A30.719,30.719,0,0,0,361.659,119.157Zm-208.7,345.4c-24.958-1.086-38.511-5.234-47.543-8.709a79.779,79.779,0,0,1-29.479-19.093,79.572,79.572,0,0,1-19.2-29.4c-3.508-9.033-7.73-22.569-8.9-47.527C46.57,332.848,46.28,324.753,46.156,256.4c-.133-68.338.116-76.434,1.294-103.441,1.069-24.941,5.242-38.512,8.709-47.536A79.429,79.429,0,0,1,75.253,75.943a79.3,79.3,0,0,1,29.4-19.2c9.025-3.526,22.561-7.715,47.511-8.9,27-1.278,35.085-1.551,103.423-1.684s76.448.108,103.456,1.294c24.94,1.086,38.51,5.217,47.527,8.709a79.247,79.247,0,0,1,29.478,19.094,79.269,79.269,0,0,1,19.21,29.413c3.524,9,7.714,22.552,8.892,47.494,1.285,27,1.576,35.094,1.7,103.432.132,68.355-.117,76.451-1.3,103.442-1.087,24.957-5.226,38.52-8.709,47.56a84.794,84.794,0,0,1-48.506,48.672c-9.009,3.517-22.561,7.714-47.494,8.9-27,1.269-35.086,1.56-103.448,1.684-68.338.133-76.424-.124-103.431-1.294ZM149.977,1.773c-27.239,1.286-45.843,5.648-62.1,12.019A125.217,125.217,0,0,0,42.59,43.4a125.438,125.438,0,0,0-29.446,45.4c-6.3,16.3-10.575,34.912-11.778,62.168C.172,178.264-.1,186.973.031,256.489S.47,334.723,1.772,362.037c1.3,27.231,5.649,45.827,12.019,62.092A125.319,125.319,0,0,0,43.4,469.418a125.548,125.548,0,0,0,45.4,29.438c16.282,6.294,34.9,10.583,62.15,11.777,27.305,1.2,36.022,1.468,105.521,1.336,69.532-.133,78.25-.44,105.555-1.734,27.239-1.3,45.826-5.664,62.1-12.019A130.8,130.8,0,0,0,498.848,423.2c6.3-16.282,10.592-34.9,11.777-62.134,1.195-27.323,1.478-36.049,1.344-105.557s-.447-78.225-1.741-105.522c-1.294-27.256-5.657-45.844-12.019-62.118a125.574,125.574,0,0,0-29.6-45.288,125.286,125.286,0,0,0-45.4-29.429c-16.29-6.3-34.9-10.6-62.15-11.778C333.747.164,325.03-.1,255.506.031,186,.164,177.282.462,149.977,1.773Z" transform="translate(0 0)"/><path d="M228.927,502c-44.606,0-54.135-.325-77.531-1.356-23.583-1.034-41.773-4.46-58.984-11.114A115.983,115.983,0,0,1,50.46,462.335a115.751,115.751,0,0,1-27.354-41.842c-6.719-17.156-10.216-35.329-11.345-58.933-1.289-27.032-1.6-36.04-1.73-105.09-.132-69.005.142-78.018,1.325-105.075,1.043-23.621,4.471-41.817,11.115-59a115.831,115.831,0,0,1,27.2-41.943A115.588,115.588,0,0,1,91.508,23.109c17.19-6.736,35.363-10.234,58.941-11.347,27.386-1.315,35.6-1.6,105.076-1.731,10.453-.02,19.526-.031,27.5-.031,44.674,0,54.2.328,77.586,1.365,23.568,1.019,41.756,4.447,58.985,11.114a115.656,115.656,0,0,1,41.957,27.188A116.034,116.034,0,0,1,488.9,91.51c6.726,17.206,10.224,35.387,11.342,58.952,1.29,27.174,1.6,36.21,1.731,105.067.134,68.817-.143,77.866-1.334,105.1-1.027,23.579-4.453,41.762-11.113,58.96A120.789,120.789,0,0,1,420.488,488.9c-17.2,6.718-35.379,10.217-58.933,11.344-27.063,1.282-36.078,1.59-105.1,1.722C245.992,501.988,236.906,502,228.927,502ZM283.9,36.125c-8.135,0-17.476.011-28.335.032-68.593.134-76.73.41-103.876,1.7-26.407,1.254-40.954,5.776-50.677,9.575A89.825,89.825,0,0,0,68.168,68.885a89.937,89.937,0,0,0-21.336,32.931c-3.777,9.828-8.248,24.455-9.373,50.713-1.189,27.263-1.436,35.422-1.3,103.889.123,68.206.4,76.4,1.694,103.883,1.231,26.249,5.759,40.871,9.567,50.678a90.089,90.089,0,0,0,21.458,32.853,90.256,90.256,0,0,0,32.937,21.342c9.785,3.765,24.376,8.227,50.716,9.373,23.42,1.015,32.892,1.336,76.154,1.336,7.992,0,17.142-.012,27.731-.032,68.181-.124,76.382-.4,103.9-1.695,26.383-1.255,40.932-5.776,50.661-9.574a94.792,94.792,0,0,0,54.194-54.376c3.764-9.768,8.225-24.347,9.374-50.736,1.2-27.225,1.444-35.376,1.312-103.9-.124-68.241-.405-76.431-1.711-103.887-1.249-26.439-5.771-40.965-9.57-50.666a89.776,89.776,0,0,0-21.46-32.847,89.729,89.729,0,0,0-32.932-21.34c-9.7-3.757-24.239-8.22-50.7-9.373C336.364,36.445,327,36.125,283.9,36.125ZM255.981,377.434c-66.825,0-121.3-54.373-121.426-121.205a121.451,121.451,0,0,1,121.2-121.68H256c66.839,0,121.322,54.377,121.453,121.215A121.451,121.451,0,0,1,256.226,377.434Zm-.17-216.759a95.326,95.326,0,0,0,.176,190.651h.186A95.326,95.326,0,0,0,256,160.675Zm136.56-20.869a20.7,20.7,0,1,1,.039,0Z" transform="translate(0 0)"/></g></svg>