<svg id="레이어_1" data-name="레이어 1" xmlns="http://www.w3.org/2000/svg" viewBox="0 0 156.864 149.861"><defs><style>.cls-1{fill:#f4cc22;stroke:#f4cc22;stroke-miterlimit:10;}</style></defs><path class="cls-1" d="M559.185,479.727a6.368,6.368,0,0,0-5.139-4.334l-46.139-6.7-20.633-41.808A6.356,6.356,0,0,0,482,423.363V549.992l40.832,21.466a6.367,6.367,0,0,0,9.237-6.712l-7.88-45.951,33.385-32.542A6.364,6.364,0,0,0,559.185,479.727Z" transform="translate(-403.133 -422.828)"/><path class="cls-1" d="M481.565,423.333a6.366,6.366,0,0,0-5.709,3.548l-20.634,41.808-46.137,6.7a6.367,6.367,0,0,0-3.529,10.86l33.386,32.542-7.881,45.951a6.366,6.366,0,0,0,9.237,6.712l41.267-21.695.435.229V423.363C481.855,423.353,481.712,423.333,481.565,423.333Z" transform="translate(-403.133 -422.828)"/></svg>