<svg id="레이어_1" data-name="레이어 1" xmlns="http://www.w3.org/2000/svg" viewBox="0 0 156.864 149.857"><defs><style>.cls-1{fill:#f4cc22;stroke:#f4cc22;stroke-miterlimit:10;}</style></defs><path class="cls-1" d="M156.052,56.9a6.368,6.368,0,0,0-5.139-4.334l-46.139-6.7L84.141,4.057A6.355,6.355,0,0,0,78.867.535c-.145-.01-.288-.03-.435-.03a6.367,6.367,0,0,0-5.709,3.548L52.089,45.861l-46.137,6.7a6.367,6.367,0,0,0-3.529,10.86L35.809,95.963l-7.881,45.951a6.366,6.366,0,0,0,9.237,6.712l41.267-21.7.435.229v0L119.7,148.63a6.367,6.367,0,0,0,9.237-6.712l-7.88-45.951,33.385-32.542A6.364,6.364,0,0,0,156.052,56.9Z" transform="translate(0 -0.005)"/></svg>